<?xml version="1.0" encoding="utf-8"?>
<!-- Svg Vector Icons : http://www.onlinewebfonts.com/icon -->
<!DOCTYPE svg PUBLIC "-//W3C//DTD SVG 1.1//EN" "http://www.w3.org/Graphics/SVG/1.1/DTD/svg11.dtd">
<svg version="1.1" xmlns="http://www.w3.org/2000/svg" xmlns:xlink="http://www.w3.org/1999/xlink" x="0px" y="0px" viewBox="0 0 1000 1000" enable-background="new 0 0 1000 1000" xml:space="preserve">
<metadata> Svg Vector Icons : http://www.onlinewebfonts.com/icon </metadata>
<g><path d="M56.7,150h886.7c25.8,0,46.7-20.9,46.7-46.7c0-25.8-20.9-46.7-46.7-46.7H56.7C30.9,56.7,10,77.6,10,103.3C10,129.1,30.9,150,56.7,150z M943.3,453.3H56.7C30.9,453.3,10,474.2,10,500c0,25.8,20.9,46.7,46.7,46.7h886.7c25.8,0,46.7-20.9,46.7-46.7C990,474.2,969.1,453.3,943.3,453.3z M943.3,850H56.7C30.9,850,10,870.9,10,896.7c0,25.8,20.9,46.7,46.7,46.7h886.7c25.8,0,46.7-20.9,46.7-46.7C990,870.9,969.1,850,943.3,850z"/></g>
</svg>